<svg width="1088" height="13" viewBox="0 0 1088 13" fill="none" xmlns="http://www.w3.org/2000/svg">
<line x1="4" y1="6.5" x2="1087" y2="6.5" stroke="#FEFEFE"/>
<path d="M9 6.49998C9 7.88069 7.88071 8.99998 6.5 8.99998C5.11929 8.99998 4 7.88069 4 6.49998C4 5.11927 5.11929 3.99998 6.5 3.99998C7.88071 3.99998 9 5.11927 9 6.49998Z" fill="#FEFEFE"/>
<path d="M207 6.49998C207 7.88069 205.881 8.99998 204.5 8.99998C203.119 8.99998 202 7.88069 202 6.49998C202 5.11927 203.119 3.99998 204.5 3.99998C205.881 3.99998 207 5.11927 207 6.49998Z" fill="#FEFEFE"/>
<path d="M450.326 6.22461C450.326 7.60532 449.207 8.72461 447.826 8.72461C446.445 8.72461 445.326 7.60532 445.326 6.22461C445.326 4.8439 446.445 3.72461 447.826 3.72461C449.207 3.72461 450.326 4.8439 450.326 6.22461Z" fill="#FEFEFE"/>
<path d="M683.5 6.35351C683.5 7.73422 682.381 8.85351 681 8.85351C679.619 8.85351 678.5 7.73422 678.5 6.35351C678.5 4.9728 679.619 3.85352 681 3.85352C682.381 3.85352 683.5 4.9728 683.5 6.35351Z" fill="#FEFEFE"/>
<path d="M870 6.5C870 7.88071 868.881 8.99999 867.5 8.99999C866.119 8.99999 865 7.88071 865 6.5C865 5.11928 866.119 4 867.5 4C868.881 4 870 5.11928 870 6.5Z" fill="#FEFEFE"/>
<path d="M12.5 6.5C12.5 9.81371 9.81371 12.5 6.5 12.5C3.18629 12.5 0.5 9.81371 0.5 6.5C0.5 3.18629 3.18629 0.5 6.5 0.5C9.81371 0.5 12.5 3.18629 12.5 6.5Z" stroke="#FEFEFE"/>
<path d="M12.5 6.5C12.5 9.81371 9.81371 12.5 6.5 12.5C3.18629 12.5 0.5 9.81371 0.5 6.5C0.5 3.18629 3.18629 0.5 6.5 0.5C9.81371 0.5 12.5 3.18629 12.5 6.5ZM687 6.5C687 9.81371 684.314 12.5 681 12.5C677.686 12.5 675 9.81371 675 6.5C675 3.18629 677.686 0.5 681 0.5C684.314 0.5 687 3.18629 687 6.5Z" stroke="#FEFEFE"/>
<path d="M210.5 6.5C210.5 9.81371 207.814 12.5 204.5 12.5C201.186 12.5 198.5 9.81371 198.5 6.5C198.5 3.18629 201.186 0.5 204.5 0.5C207.814 0.5 210.5 3.18629 210.5 6.5Z" stroke="#FEFEFE"/>
<path d="M453.5 6.5C453.5 9.81371 450.814 12.5 447.5 12.5C444.186 12.5 441.5 9.81371 441.5 6.5C441.5 3.18629 444.186 0.5 447.5 0.5C450.814 0.5 453.5 3.18629 453.5 6.5Z" stroke="#FEFEFE"/>
<path d="M873.5 6.5C873.5 9.81371 870.814 12.5 867.5 12.5C864.186 12.5 861.5 9.81371 861.5 6.5C861.5 3.18629 864.186 0.5 867.5 0.5C870.814 0.5 873.5 3.18629 873.5 6.5Z" stroke="#FEFEFE"/>
</svg>
